<svg width="32" height="33" viewBox="0 0 32 33" fill="none" xmlns="http://www.w3.org/2000/svg">
<g id="icon-time" clip-path="url(#clip0_58_50)">
<path id="Vector" d="M16 32.5C11.7565 32.5 7.68687 30.8143 4.68629 27.8137C1.68571 24.8131 0 20.7435 0 16.5C0 12.2565 1.68571 8.18687 4.68629 5.18629C7.68687 2.18571 11.7565 0.5 16 0.5C20.2435 0.5 24.3131 2.18571 27.3137 5.18629C30.3143 8.18687 32 12.2565 32 16.5C32 20.7435 30.3143 24.8131 27.3137 27.8137C24.3131 30.8143 20.2435 32.5 16 32.5ZM16 29.3C19.3948 29.3 22.6505 27.9514 25.051 25.551C27.4514 23.1505 28.8 19.8948 28.8 16.5C28.8 13.1052 27.4514 9.8495 25.051 7.44903C22.6505 5.04857 19.3948 3.7 16 3.7C12.6052 3.7 9.3495 5.04857 6.94903 7.44903C4.54857 9.8495 3.2 13.1052 3.2 16.5C3.2 19.8948 4.54857 23.1505 6.94903 25.551C9.3495 27.9514 12.6052 29.3 16 29.3ZM14.4 17.156V6.9H17.6V15.844L23.92 22.164L21.664 24.42L14.4 17.156Z" fill="white"/>
</g>
<defs>
<clipPath id="clip0_58_50">
<rect width="32" height="32" fill="white" transform="translate(0 0.5)"/>
</clipPath>
</defs>
</svg>
