<svg width="100" height="100" viewBox="0 0 100 100" fill="none" xmlns="http://www.w3.org/2000/svg">
<path d="M50 13.5415C50.8288 13.5415 51.6237 13.8707 52.2097 14.4568C52.7958 15.0428 53.125 15.8377 53.125 16.6665C53.125 17.4953 52.7958 18.2902 52.2097 18.8762C51.6237 19.4623 50.8288 19.7915 50 19.7915C41.9883 19.7915 34.3046 22.9742 28.6395 28.6393C22.9743 34.3045 19.7917 41.9881 19.7917 49.9998C19.7917 58.0116 22.9743 65.6952 28.6395 71.3604C34.3046 77.0255 41.9883 80.2082 50 80.2082C50.8288 80.2082 51.6237 80.5374 52.2097 81.1235C52.7958 81.7095 53.125 82.5044 53.125 83.3332C53.125 84.162 52.7958 84.9568 52.2097 85.5429C51.6237 86.1289 50.8288 86.4582 50 86.4582C40.3307 86.4582 31.0573 82.617 24.2201 75.7798C17.3828 68.9425 13.5417 59.6692 13.5417 49.9998C13.5417 40.3305 17.3828 31.0572 24.2201 24.2199C31.0573 17.3826 40.3307 13.5415 50 13.5415Z" fill="white"/>
<path d="M68.625 39.708C68.073 39.1156 67.7725 38.3321 67.7868 37.5225C67.8011 36.7129 68.129 35.9405 68.7016 35.3679C69.2741 34.7954 70.0466 34.4674 70.8562 34.4531C71.6657 34.4388 72.4493 34.7394 73.0417 35.2914L85.5417 47.7914C86.1269 48.3773 86.4556 49.1716 86.4556 49.9997C86.4556 50.8278 86.1269 51.6221 85.5417 52.208L73.0417 64.708C72.7556 65.015 72.4106 65.2613 72.0272 65.4321C71.6439 65.6029 71.2301 65.6947 70.8105 65.7022C70.3909 65.7096 69.9741 65.6324 69.585 65.4752C69.1959 65.318 68.8424 65.0841 68.5457 64.7873C68.2489 64.4906 68.015 64.1371 67.8578 63.748C67.7007 63.3589 67.6235 62.9421 67.6309 62.5225C67.6383 62.1029 67.7301 61.6891 67.9009 61.3058C68.0717 60.9224 68.318 60.5774 68.625 60.2914L75.7917 53.1247H41.6667C40.8379 53.1247 40.043 52.7954 39.457 52.2094C38.8709 51.6233 38.5417 50.8285 38.5417 49.9997C38.5417 49.1709 38.8709 48.376 39.457 47.79C40.043 47.2039 40.8379 46.8747 41.6667 46.8747H75.7917L68.625 39.708Z" fill="white"/>
</svg>
